<?xml version="1.0" encoding="UTF-8" standalone="no"?>
<!-- Generator: Adobe Illustrator 18.0.0, SVG Export Plug-In . SVG Version: 6.00 Build 0)  -->

<svg
   xmlns:dc="http://purl.org/dc/elements/1.1/"
   xmlns:cc="http://creativecommons.org/ns#"
   xmlns:rdf="http://www.w3.org/1999/02/22-rdf-syntax-ns#"
   xmlns:svg="http://www.w3.org/2000/svg"
   xmlns="http://www.w3.org/2000/svg"
   xmlns:sodipodi="http://sodipodi.sourceforge.net/DTD/sodipodi-0.dtd"
   xmlns:inkscape="http://www.inkscape.org/namespaces/inkscape"
   version="1.1"
   id="_x30_"
   x="0px"
   y="0px"
   viewBox="0 0 1536 1536"
   xml:space="preserve"
   inkscape:version="0.91 r13725"
   sodipodi:docname="RemainderCalc.svg"
   width="1536"
   height="1536"
   inkscape:export-filename="/Volumes/SD/Development/Projects/xinext/iOS/ModCalc/img/icon_1536.png"
   inkscape:export-xdpi="90"
   inkscape:export-ydpi="90"><metadata
     id="metadata4378"><rdf:RDF><cc:Work
         rdf:about=""><dc:format>image/svg+xml</dc:format><dc:type
           rdf:resource="http://purl.org/dc/dcmitype/StillImage" /><dc:title /></cc:Work></rdf:RDF></metadata><defs
     id="defs4376" /><sodipodi:namedview
     pagecolor="#ffffff"
     bordercolor="#666666"
     borderopacity="1"
     objecttolerance="10"
     gridtolerance="10"
     guidetolerance="10"
     inkscape:pageopacity="0"
     inkscape:pageshadow="2"
     inkscape:window-width="1902"
     inkscape:window-height="1041"
     id="namedview4374"
     showgrid="false"
     inkscape:zoom="1.3195079"
     inkscape:cx="1366.4005"
     inkscape:cy="908.70415"
     inkscape:window-x="12"
     inkscape:window-y="2"
     inkscape:window-maximized="0"
     inkscape:current-layer="g4252" /><g
     inkscape:groupmode="layer"
     id="layer2"
     inkscape:label="back"
     style="display:inline"
     transform="translate(0,512)"><rect
       style="fill:#56a764;fill-opacity:1;stroke:none;stroke-width:10.5;stroke-linejoin:miter;stroke-miterlimit:4;stroke-dasharray:none;stroke-opacity:1"
       id="rect4380"
       width="1536"
       height="1536"
       x="0"
       y="-1024"
       transform="scale(1,-1)" /><flowRoot
       xml:space="preserve"
       id="flowRoot4140"
       style="font-style:normal;font-weight:normal;font-size:180px;line-height:125%;font-family:sans-serif;letter-spacing:0px;word-spacing:0px;fill:#000000;fill-opacity:1;stroke:none;stroke-width:1px;stroke-linecap:butt;stroke-linejoin:miter;stroke-opacity:1"
       transform="translate(0,-512)"><flowRegion
         id="flowRegion4142"><rect
           id="rect4144"
           width="853.05872"
           height="193.27112"
           x="642.01556"
           y="1284.9697" /></flowRegion><flowPara
         id="flowPara4146">......aaasssadasdas</flowPara><flowPara
         id="flowPara4148" /></flowRoot><g
       style="opacity:1"
       id="g4285"
       transform="matrix(3.126037,0,0,2.661835,-24.933494,-415.7303)"><g
         id="g4252"><path
           id="path4254"
           style="fill:#4b4b4b"
           d="M 385.369,0 126.627,0 C 90.479,0 61.068,29.41 61.068,65.558 l 0,380.879 c 0,36.152 29.41,65.562 65.558,65.562 l 258.742,0 c 36.149,0 65.562,-29.41 65.562,-65.562 l 0,-380.879 C 450.932,29.41 421.518,0 385.369,0 Z M 93.85,65.558 c 0,-18.106 14.675,-32.781 32.777,-32.781 l 258.742,0 c 18.106,0 32.782,14.675 32.782,32.781 l 0,380.879 c 0,18.106 -14.676,32.781 -32.782,32.781 l -258.742,0 c -18.102,0 -32.777,-14.675 -32.777,-32.781 l 0,-380.879 z"
           class="st0"
           inkscape:connector-curvature="0" /><rect
           id="rect4256"
           style="fill:#4b4b4b"
           height="14.898"
           width="289.94601"
           class="st0"
           y="201.867"
           x="111.025" /><polygon
           id="polygon4258"
           style="fill:#4b4b4b"
           points="140.436,87.133 140.276,87.133 140.276,160.641 371.72,160.641 371.72,87.133 141.143,87.133 140.436,87.133 "
           class="st0" /><polygon
           id="polygon4260"
           style="fill:#4b4b4b"
           points="194.932,288.516 194.932,245.625 194.932,245.492 194.932,245.492 194.932,245.332 141.248,245.332 141.248,288.516 "
           class="st0" /><rect
           id="rect4262"
           style="fill:#4b4b4b"
           height="43.183998"
           width="53.68"
           class="st0"
           y="245.332"
           x="229.158" /><polygon
           id="polygon4264"
           style="fill:#4b4b4b"
           points="370.748,288.516 370.748,245.625 370.748,245.492 370.748,245.492 370.748,245.332 317.068,245.332 317.068,288.516 "
           class="st0" /><polygon
           id="polygon4266"
           style="fill:#4b4b4b"
           points="194.932,360.035 194.932,317.145 194.932,317.016 194.932,317.016 194.932,316.851 141.248,316.851 141.248,360.035 "
           class="st0" /><rect
           id="rect4268"
           style="fill:#4b4b4b"
           height="43.183998"
           width="53.68"
           class="st0"
           y="316.85101"
           x="229.158" /><polygon
           id="polygon4270"
           style="fill:#4b4b4b"
           points="370.748,360.035 370.748,317.145 370.748,317.016 370.748,317.016 370.748,316.851 317.068,316.851 317.068,360.035 "
           class="st0" /><polygon
           id="polygon4272"
           style="fill:#4b4b4b"
           points="141.248,431.554 194.932,431.554 194.932,388.664 194.932,388.531 194.932,388.531 194.932,388.371 141.248,388.371 "
           class="st0" /><rect
           id="rect4274"
           style="fill:#4b4b4b"
           height="43.182999"
           width="53.68"
           class="st0"
           y="388.371"
           x="229.158" /><polygon
           id="polygon4276"
           style="fill:#4b4b4b"
           points="317.068,431.554 370.748,431.554 370.748,388.664 370.748,388.531 370.748,388.531 370.748,388.371 317.068,388.371 "
           class="st0" /></g></g></g><g
     inkscape:groupmode="layer"
     id="layer1"
     inkscape:label="icon"
     style="display:inline"
     transform="translate(0,512)" /><g
     inkscape:groupmode="layer"
     id="layer3"
     inkscape:label="text"
     transform="translate(0,512)" /><style
     id="style4250"
     type="text/css">
	.st0{fill:#374149;}
</style></svg>